<mxfile host="app.diagrams.net" modified="2024-07-05T23:21:38.224Z" agent="Mozilla/5.0 (X11; Ubuntu; Linux x86_64; rv:127.0) Gecko/20100101 Firefox/127.0" version="24.6.4" etag="wP9qQWU-2LpKmAGm4ySz" type="github">
  <diagram name="Page-1" id="dPTO04qcUwFonV-kfGJJ">
    <mxGraphModel>
      <root>
        <mxCell id="0" />
        <mxCell id="1" parent="0" />
      </root>
    </mxGraphModel>
  </diagram>
</mxfile>
